<svg width="8" height="8" viewBox="0 0 8 8" fill="none" xmlns="http://www.w3.org/2000/svg">
<path d="M2.58612 1.42836L3.38493 5.25598H2.259L1.38434 1.39258H2.58256C2.58256 1.40476 2.58345 1.4161 2.58612 1.42828V1.42836Z" fill="#D9EDFF"/>
<path d="M4.59552 5.2559H3.74115C3.74115 5.24457 3.74026 5.23238 3.7376 5.2202L2.93878 1.39258H4.52671V5.11821C4.52671 5.17487 4.55315 5.22369 4.59545 5.2559H4.59552Z" fill="#D9EDFF"/>
<path d="M6.46643 1.39258L5.66762 5.2202C5.66495 5.23238 5.66406 5.24465 5.66406 5.2559H4.80969C4.85199 5.22361 4.87932 5.17487 4.87932 5.11821V1.39258H6.46636H6.46643Z" fill="#D9EDFF"/>
<path d="M7.68853 1.80401L6.94794 5.2559H6.02039L6.8192 1.42828C6.82187 1.4161 6.82276 1.40476 6.82276 1.39258H7.32535C7.5555 1.39258 7.73001 1.58956 7.68861 1.80401H7.68853Z" fill="#D9EDFF"/>
<path d="M2.93151 1.35747C2.9118 1.26309 2.81877 1.20247 2.72314 1.22188C2.63973 1.23888 2.58232 1.3116 2.5824 1.39263H2.93884L2.93151 1.35739V1.35747Z" fill="#92A4B3"/>
<path d="M3.3921 5.2911C3.40928 5.37352 3.48277 5.43018 3.56462 5.43018C3.5764 5.43018 3.5884 5.42909 3.60047 5.42661C3.6838 5.40954 3.74121 5.33689 3.74121 5.25586H3.38477L3.3921 5.2911Z" fill="#92A4B3"/>
<path d="M3.73743 5.22067L2.93884 1.39282H2.5824C2.5824 1.40446 2.58358 1.41618 2.58603 1.42806L3.38462 5.25591H3.74106C3.74106 5.24427 3.73988 5.23247 3.73743 5.22067Z" fill="#92A4B3"/>
<path d="M5.80499 5.42661C5.81706 5.42909 5.82899 5.43018 5.84084 5.43018C5.92269 5.43018 5.99617 5.37352 6.01336 5.2911L6.02069 5.25586H5.66425C5.66425 5.33689 5.72158 5.40961 5.80499 5.42661Z" fill="#92A4B3"/>
<path d="M6.68207 1.2221C6.5863 1.20277 6.49341 1.26331 6.4737 1.35769L6.46637 1.39293H6.82281C6.82281 1.3119 6.76548 1.23917 6.68207 1.22218V1.2221Z" fill="#92A4B3"/>
<path d="M6.82284 1.39282H6.46639L5.66788 5.22067C5.66543 5.23247 5.66425 5.24427 5.66425 5.25591H6.02069L6.81921 1.42806C6.82165 1.41626 6.82284 1.40446 6.82284 1.39282Z" fill="#92A4B3"/>
<path d="M4.7027 5.29288C4.74336 5.29288 4.78033 5.27868 4.81018 5.25586H4.59521C4.62507 5.27876 4.66203 5.29288 4.7027 5.29288Z" fill="#92A4B3"/>
<path d="M4.70262 1.21851C4.60521 1.21851 4.52625 1.29659 4.52625 1.39283H4.87891C4.87891 1.29659 4.79995 1.21851 4.70254 1.21851H4.70262Z" fill="#92A4B3"/>
<path d="M4.87891 5.11853V1.39282H4.52625V5.11853C4.52625 5.17457 4.5535 5.22393 4.59513 5.25583H4.8101C4.85173 5.22393 4.87899 5.17457 4.87899 5.11853H4.87891Z" fill="#92A4B3"/>
<path d="M7.17548 6.45462H2.12548C2.02807 6.45462 1.94911 6.37654 1.94911 6.2803C1.94911 6.18406 2.02807 6.10598 2.12548 6.10598H7.09622C7.28163 5.8674 7.16422 5.5685 7.09133 5.4302H2.22096C2.13681 5.4302 2.06444 5.37144 2.048 5.28987L1.05393 0.348643H0.17637C0.0789629 0.348643 0 0.27064 0 0.174321C0 0.0780022 0.0789629 0 0.17637 0H1.19867C1.28281 0 1.35518 0.0587539 1.37163 0.140326L2.3657 5.08148H7.19215C7.25015 5.08148 7.30459 5.10973 7.33748 5.15707C7.50985 5.40505 7.72392 5.98467 7.30022 6.40355C7.26718 6.43623 7.22229 6.45462 7.17555 6.45462H7.17548Z" fill="#92A4B3"/>
<path d="M2.1255 8.00012C2.65369 8.00012 3.08187 7.57681 3.08187 7.05463C3.08187 6.53244 2.65369 6.10913 2.1255 6.10913C1.59731 6.10913 1.16913 6.53244 1.16913 7.05463C1.16913 7.57681 1.59731 8.00012 2.1255 8.00012Z" fill="#4A535A"/>
<path d="M2.12547 7.5936C2.42665 7.5936 2.67081 7.35223 2.67081 7.05449C2.67081 6.75675 2.42665 6.51538 2.12547 6.51538C1.82429 6.51538 1.58014 6.75675 1.58014 7.05449C1.58014 7.35223 1.82429 7.5936 2.12547 7.5936Z" fill="#B1C6D3"/>
<path d="M7.04365 8.00012C7.57184 8.00012 8.00002 7.57681 8.00002 7.05463C8.00002 6.53244 7.57184 6.10913 7.04365 6.10913C6.51546 6.10913 6.08728 6.53244 6.08728 7.05463C6.08728 7.57681 6.51546 8.00012 7.04365 8.00012Z" fill="#4A535A"/>
<path d="M7.04362 7.5936C7.3448 7.5936 7.58896 7.35223 7.58896 7.05449C7.58896 6.75675 7.3448 6.51538 7.04362 6.51538C6.74244 6.51538 6.49829 6.75675 6.49829 7.05449C6.49829 7.35223 6.74244 7.5936 7.04362 7.5936Z" fill="#B1C6D3"/>
<path d="M7.58889 2.53541H1.65037C1.55296 2.53541 1.474 2.45733 1.474 2.36109C1.474 2.26485 1.55296 2.18677 1.65037 2.18677H7.58889C7.68629 2.18677 7.76526 2.26485 7.76526 2.36109C7.76526 2.45733 7.68629 2.53541 7.58889 2.53541Z" fill="#92A4B3"/>
<path d="M7.36232 3.49854H1.87113C1.77373 3.49854 1.69476 3.42047 1.69476 3.32422C1.69476 3.22798 1.77373 3.1499 1.87113 3.1499H7.36232C7.45972 3.1499 7.53869 3.22798 7.53869 3.32422C7.53869 3.42047 7.45972 3.49854 7.36232 3.49854Z" fill="#92A4B3"/>
<path d="M7.15567 4.46168H2.06974C1.97233 4.46168 1.89337 4.3836 1.89337 4.28736C1.89337 4.19112 1.97233 4.11304 2.06974 4.11304H7.15567C7.25307 4.11304 7.33204 4.19112 7.33204 4.28736C7.33204 4.3836 7.25307 4.46168 7.15567 4.46168Z" fill="#92A4B3"/>
</svg>
