<svg width="18" height="18" viewBox="0 0 18 18" fill="none" xmlns="http://www.w3.org/2000/svg">
<path d="M9.01183 18H8.98889C8.89896 18.0001 8.81125 17.9672 8.73795 17.906C8.49598 17.7048 2.81586 12.9382 0.722338 8.91672L0.714093 8.90027C0.246326 7.98613 -0.000568304 6.9392 9.82267e-07 5.87223C9.82267e-07 2.6342 2.23943 4.50289e-07 4.99219 4.50289e-07C5.77116 -0.00035845 6.53937 0.213832 7.23532 0.62542C7.93128 1.03701 8.53563 1.63456 9 2.37023C9.46441 1.63461 10.0688 1.03709 10.7647 0.62551C11.4607 0.213927 12.2289 -0.000292193 13.0078 4.50289e-07C15.7606 4.50289e-07 18 2.6342 18 5.87223C18.0006 6.9392 17.7537 7.98613 17.2859 8.90027C17.2834 8.90593 17.2807 8.91142 17.2777 8.91672C15.1845 12.9378 9.50259 17.7048 9.26169 17.906C9.18846 17.9674 9.1007 18.0003 9.01075 18H9.01183Z" fill="#CD5F2A"/>
</svg>
